<svg width="512" height="512" viewBox="0 0 512 512" fill="none" xmlns="http://www.w3.org/2000/svg">
<g clip-path="url(#clip0_4_16381)">
<mask id="mask0_4_16381" style="mask-type:luminance" maskUnits="userSpaceOnUse" x="0" y="0" width="512" height="512">
<path d="M512 0H0V512H512V0Z" fill="white"/>
</mask>
<g mask="url(#mask0_4_16381)">
<path d="M492.314 337.768C452.887 338.094 379.571 354.386 254.229 400.33C147.933 439.293 17.4997 439.499 17.0187 377.901C16.9787 372.737 16.4757 370.721 16.4587 368.535C15.7497 278.25 157.478 247.952 254.229 247.952C353.969 247.952 422.885 283.507 462.867 312.907C475.595 322.266 485.39 331.001 492.314 337.768Z" fill="url(#paint0_linear_4_16381)"/>
<path d="M492.314 337.768C452.887 338.094 379.571 354.386 254.229 400.33C147.933 439.293 17.4997 439.499 17.0187 377.901C16.9787 372.737 16.4757 370.721 16.4587 368.535C15.7497 278.25 157.478 247.952 254.229 247.952C353.969 247.952 422.885 283.507 462.867 312.907C475.595 322.266 485.39 331.001 492.314 337.768Z" stroke="#667F87" stroke-width="6" stroke-linecap="round" stroke-linejoin="round"/>
<path d="M83.7021 97.4919C83.7021 97.4919 115.526 245.011 83.7021 373.919C83.7021 431.285 424.754 390.7 424.754 333.342C402.271 232.845 424.754 97.4919 424.754 97.4919C424.754 61.1929 83.7021 61.2969 83.7021 97.4919Z" fill="url(#paint1_linear_4_16381)"/>
<path d="M83.7021 97.4919C83.7021 97.4919 115.526 245.011 83.7021 373.919C83.7021 431.285 424.754 390.7 424.754 333.342C402.271 232.845 424.754 97.4919 424.754 97.4919C424.754 61.1929 83.7021 61.2969 83.7021 97.4919Z" stroke="url(#paint2_linear_4_16381)" stroke-width="6" stroke-linecap="round" stroke-linejoin="round"/>
<path d="M96.6452 285.301C93.5862 332.88 83.7021 366.505 83.7021 373.919C83.7021 431.285 424.754 390.7 424.754 333.342C424.754 325.928 418.361 296.526 415.78 260.248C389.495 334.821 103.977 351.475 96.6452 285.301Z" fill="url(#paint3_linear_4_16381)"/>
<path d="M96.6452 285.301C93.5862 332.88 83.7021 366.505 83.7021 373.919C83.7021 431.285 424.754 390.7 424.754 333.342C424.754 325.928 418.361 296.526 415.78 260.248C389.495 334.821 103.977 351.475 96.6452 285.301Z" stroke="url(#paint4_linear_4_16381)" stroke-width="6" stroke-linecap="round" stroke-linejoin="round"/>
<path d="M271.267 323.317C270.258 356.917 274.749 388.912 274.749 394.148C309.749 388.75 353.374 379.124 372.832 371.368C370.749 360.874 364.974 327.619 364.123 302C347.624 309 307.374 320.125 271.267 323.317Z" stroke="url(#paint5_linear_4_16381)" stroke-width="6" stroke-linecap="round" stroke-linejoin="round"/>
<path d="M419.912 108.216C412.798 161.288 404.008 252.07 421.604 332.88C419.975 340.374 412.046 350.585 400.927 354.712C387.689 292.045 382.354 188.554 393.107 117.194C411.258 113.611 419.912 108.216 419.912 108.216Z" fill="url(#paint6_linear_4_16381)"/>
<path d="M92.61 115.975C106.513 201.781 110.206 286.068 88.917 373.829" stroke="url(#paint7_linear_4_16381)" stroke-width="6" stroke-linecap="round" stroke-linejoin="round"/>
<path d="M424.754 96.9997C424.754 133.299 83.7021 133.195 83.7021 96.9997C83.7021 60.7007 424.754 60.8047 424.754 96.9997Z" fill="url(#paint8_linear_4_16381)"/>
<path d="M424.754 96.9997C424.754 133.299 83.7021 133.195 83.7021 96.9997C83.7021 60.7007 424.754 60.8047 424.754 96.9997Z" stroke="url(#paint9_linear_4_16381)" stroke-width="6" stroke-linecap="round" stroke-linejoin="round"/>
<path d="M492.314 337.769C451.257 336.357 379.831 352.496 254.229 397.724C114.197 448.148 22.3605 424.403 16.4816 373.163C16.2816 371.424 16.1816 369.654 16.1816 367.853C16.1816 371.657 16.1436 379.219 16.1436 380.129C16.1436 381.399 16.1906 382.649 16.2826 383.879C21.0996 447.928 149.935 457.353 254.229 419.124C379.571 373.18 452.887 356.887 492.314 356.561C496.143 353.653 497.853 342.983 492.314 337.769Z" fill="url(#paint10_linear_4_16381)"/>
<path d="M492.314 337.769C451.257 336.357 379.831 352.496 254.229 397.724C114.197 448.148 22.3605 424.403 16.4816 373.163C16.2816 371.424 16.1816 369.654 16.1816 367.853C16.1816 371.657 16.1436 379.219 16.1436 380.129C16.1436 381.399 16.1906 382.649 16.2826 383.879C21.0996 447.928 149.935 457.353 254.229 419.124C379.571 373.18 452.887 356.887 492.314 356.561C496.143 353.653 497.853 342.983 492.314 337.769Z" stroke="black" stroke-width="6" stroke-linecap="round" stroke-linejoin="round"/>
<path d="M492.314 337.769C451.257 336.357 379.831 352.496 254.229 397.724C114.197 448.148 22.3606 424.403 16.4816 373.163C16.2816 371.424 16.1816 369.654 16.1816 367.853" stroke="url(#paint11_radial_4_16381)" stroke-opacity="0.66" stroke-width="6" stroke-linecap="round" stroke-linejoin="round"/>
<path d="M492.314 344.476C451.257 343.064 379.831 359.204 254.229 404.432C112.976 455.296 20.7616 430.69 16.3476 378.523C16.2376 377.219 16.1816 375.898 16.1816 374.56" stroke="url(#paint12_linear_4_16381)" stroke-opacity="0.77" stroke-width="9" stroke-linecap="round" stroke-linejoin="round"/>
</g>
</g>
<defs>
<linearGradient id="paint0_linear_4_16381" x1="193" y1="243" x2="282.702" y2="414.322" gradientUnits="userSpaceOnUse">
<stop/>
<stop offset="0.15" stop-color="#11262F"/>
<stop offset="0.3" stop-color="#214C5E"/>
<stop offset="0.65" stop-color="#365A68"/>
<stop offset="1" stop-color="#4A6772"/>
</linearGradient>
<linearGradient id="paint1_linear_4_16381" x1="82.9991" y1="235" x2="424.052" y2="235" gradientUnits="userSpaceOnUse">
<stop stop-color="#7B9CAB"/>
<stop offset="0.25" stop-color="#3D4E55"/>
<stop offset="0.5"/>
<stop offset="0.6" stop-color="#030A11"/>
<stop offset="0.7" stop-color="#051521"/>
<stop offset="0.85" stop-color="#2F354F"/>
<stop offset="1" stop-color="#59547D"/>
</linearGradient>
<linearGradient id="paint2_linear_4_16381" x1="254.228" y1="235.98" x2="354.228" y2="235.98" gradientUnits="userSpaceOnUse">
<stop stop-color="#435870"/>
<stop offset="0.08" stop-color="#213652"/>
<stop offset="0.15" stop-color="#001334"/>
<stop offset="0.57" stop-color="#00091A"/>
<stop offset="1"/>
</linearGradient>
<linearGradient id="paint3_linear_4_16381" x1="82.9991" y1="330" x2="419.082" y2="330" gradientUnits="userSpaceOnUse">
<stop stop-color="#9B6E09"/>
<stop offset="0.05" stop-color="#B7922E"/>
<stop offset="0.11" stop-color="#D2B553"/>
<stop offset="0.19" stop-color="#E8D681"/>
<stop offset="0.28" stop-color="#FEF8AE"/>
<stop offset="0.32" stop-color="#DEBC5C"/>
<stop offset="0.36" stop-color="#BD7F0A"/>
<stop offset="0.46" stop-color="#8F5805"/>
<stop offset="0.55" stop-color="#613100"/>
<stop offset="0.61" stop-color="#6D3C01"/>
<stop offset="0.66" stop-color="#7A4801"/>
<stop offset="0.71" stop-color="#A07103"/>
<stop offset="0.77" stop-color="#C79A04"/>
<stop offset="0.85" stop-color="#BC8C03"/>
<stop offset="0.92" stop-color="#B17E01"/>
<stop offset="0.96" stop-color="#C59B32"/>
<stop offset="1" stop-color="#D9B763"/>
</linearGradient>
<linearGradient id="paint4_linear_4_16381" x1="79.9991" y1="330" x2="427.052" y2="330" gradientUnits="userSpaceOnUse">
<stop stop-color="#935502"/>
<stop offset="0.28" stop-color="#AB730E"/>
<stop offset="0.55" stop-color="#C29119"/>
<stop offset="0.73" stop-color="#A7740F"/>
<stop offset="0.9" stop-color="#8C5605"/>
<stop offset="0.95" stop-color="#B6863D"/>
<stop offset="1" stop-color="#DFB576"/>
</linearGradient>
<linearGradient id="paint5_linear_4_16381" x1="79.9989" y1="330" x2="427.052" y2="330" gradientUnits="userSpaceOnUse">
<stop stop-color="#935502"/>
<stop offset="0.28" stop-color="#AB730E"/>
<stop offset="0.55" stop-color="#C29119"/>
<stop offset="0.73" stop-color="#A7740F"/>
<stop offset="0.9" stop-color="#8C5605"/>
<stop offset="0.95" stop-color="#B6863D"/>
<stop offset="1" stop-color="#DFB576"/>
</linearGradient>
<linearGradient id="paint6_linear_4_16381" x1="358.999" y1="134" x2="458.403" y2="323.854" gradientUnits="userSpaceOnUse">
<stop stop-color="white" stop-opacity="0.3"/>
<stop offset="0.5" stop-color="white" stop-opacity="0.15"/>
<stop offset="1" stop-color="white" stop-opacity="0"/>
</linearGradient>
<linearGradient id="paint7_linear_4_16381" x1="35.999" y1="141" x2="143.947" y2="347.172" gradientUnits="userSpaceOnUse">
<stop stop-color="white" stop-opacity="0"/>
<stop offset="0.15" stop-color="white" stop-opacity="0.15"/>
<stop offset="0.3" stop-color="white" stop-opacity="0.3"/>
<stop offset="0.5" stop-color="white" stop-opacity="0.3"/>
<stop offset="0.7" stop-color="white" stop-opacity="0.3"/>
<stop offset="0.85" stop-color="white" stop-opacity="0.15"/>
<stop offset="1" stop-color="white" stop-opacity="0"/>
</linearGradient>
<linearGradient id="paint8_linear_4_16381" x1="154.999" y1="71.5077" x2="312.709" y2="111.261" gradientUnits="userSpaceOnUse">
<stop stop-color="#8E99B2"/>
<stop offset="0.5" stop-color="#7D86A4"/>
<stop offset="1" stop-color="#6C7497"/>
</linearGradient>
<linearGradient id="paint9_linear_4_16381" x1="122.999" y1="20.5077" x2="385.375" y2="171.991" gradientUnits="userSpaceOnUse">
<stop stop-color="#76879A"/>
<stop offset="0.35" stop-color="#50627B"/>
<stop offset="0.7" stop-color="#2A3D5D"/>
<stop offset="0.85" stop-color="#151E2E"/>
<stop offset="1"/>
</linearGradient>
<linearGradient id="paint10_linear_4_16381" x1="15.9996" y1="389" x2="495.712" y2="389" gradientUnits="userSpaceOnUse">
<stop stop-color="#7B9CAB"/>
<stop offset="0.25" stop-color="#3D4E55"/>
<stop offset="0.5"/>
<stop offset="0.6" stop-color="#030A11"/>
<stop offset="0.7" stop-color="#051521"/>
<stop offset="0.85" stop-color="#2F354F"/>
<stop offset="1" stop-color="#59547D"/>
</linearGradient>
<radialGradient id="paint11_radial_4_16381" cx="0" cy="0" r="1" gradientUnits="userSpaceOnUse" gradientTransform="translate(287.507 386.689) scale(149.429)">
<stop stop-color="white"/>
<stop offset="0.5" stop-color="white" stop-opacity="0.5"/>
<stop offset="1" stop-color="white" stop-opacity="0"/>
</radialGradient>
<linearGradient id="paint12_linear_4_16381" x1="30.6516" y1="383.141" x2="422.627" y2="379.083" gradientUnits="userSpaceOnUse">
<stop stop-color="white" stop-opacity="0"/>
<stop offset="0.35" stop-color="white" stop-opacity="0.3"/>
<stop offset="0.7" stop-color="white" stop-opacity="0.6"/>
<stop offset="0.85" stop-color="white" stop-opacity="0.3"/>
<stop offset="1" stop-color="white" stop-opacity="0"/>
</linearGradient>
<clipPath id="clip0_4_16381">
<rect width="512" height="512" fill="white"/>
</clipPath>
</defs>
</svg>
